Coordinates
version=1
nRows=12
nColumns=38
inDegrees=yes

Units are S.I. units (second, meters, Newtons, ...)
Angles are in degrees.

endheader
time	pelvis_tilt	pelvis_list	pelvis_rotation	pelvis_tx	pelvis_ty	pelvis_tz	hip_flexion_r	hip_adduction_r	hip_rotation_r	knee_angle_r	ankle_angle_r	subtalar_angle_r	mtp_angle_r	hip_flexion_l	hip_adduction_l	hip_rotation_l	knee_angle_l	ankle_angle_l	subtalar_angle_l	mtp_angle_l	lumbar_extension	lumbar_bending	lumbar_rotation	arm_flex_r	arm_add_r	arm_rot_r	elbow_flex_r	pro_sup_r	wrist_flex_r	wrist_dev_r	arm_flex_l	arm_add_l	arm_rot_l	elbow_flex_l	pro_sup_l	wrist_flex_l	wrist_dev_l
      1.91000000	      5.99650399	     -1.70819355	     -2.07611834	      0.62880430	      0.98184385	     -0.24591964	    -20.91181619	      3.81574066	      0.31050272	    -21.15202598	      5.68361248	      1.64518561	      0.00000000	     16.00405255	     -0.41865288	      3.30646118	    -10.59056938	     -3.57023446	     -4.33707949	      0.00000000	    -18.70396078	      0.63496793	      8.91290258	     -6.05520666	    -12.60334289	     16.38560751	     80.40045713	     43.92516059	      0.00000000	      0.00000000	     -8.09310894	     -8.98906542	     21.76072249	     32.17859969	     43.92516059	      0.00000000	      0.00000000
      1.92000000	      5.90918886	     -1.30855019	     -2.03023239	      0.64458497	      0.98202332	     -0.24697639	    -20.05873794	      3.16327620	     -0.82399724	    -23.94820340	      3.71143075	      2.30311927	      0.00000000	     15.66488713	      0.26694812	      4.04086572	    -10.95768079	     -4.73544231	     -5.06256606	      0.00000000	    -18.43246667	      0.07608783	      8.69507142	     -6.53210280	    -12.41674423	     16.17301485	     80.32707807	     43.94635106	      0.00000000	      0.00000000	     -7.85205937	     -8.83482678	     21.65850320	     32.07750279	     43.94635106	      0.00000000	      0.00000000
      1.93000000	      6.09865286	     -1.02007678	     -1.98671135	      0.66014798	      0.98298651	     -0.24792457	    -19.29556899	      2.67635723	     -1.84571918	    -26.88062562	      0.81364080	      1.99607485	      0.00000000	     15.23786754	      0.73533304	      4.13819584	    -12.03579164	     -4.77698801	     -5.49828960	      0.00000000	    -18.54382316	     -0.38157836	      8.46130206	     -6.81468820	    -12.30963210	     16.17344268	     80.19607194	     43.95170572	      0.00000000	      0.00000000	     -7.53746708	     -8.66548701	     21.64773838	     32.14604726	     43.95170572	      0.00000000	      0.00000000
      1.94000000	      6.19079010	     -0.75314092	     -1.90140899	      0.67524703	      0.98381572	     -0.24881292	    -18.15707760	      2.13669547	     -3.21059141	    -30.09809893	     -2.85751245	      1.69320526	      0.00000000	     15.04296177	      1.23634698	      4.30348671	    -13.51911208	     -5.36092441	     -6.50788859	      0.00000000	    -18.59890009	     -0.82416681	      8.12706704	     -7.06797112	    -12.15119491	     16.14460807	     79.97151493	     43.95819636	      0.00000000	      0.00000000	     -7.07136495	     -8.52431708	     21.62099014	     32.25505931	     43.95819636	      0.00000000	      0.00000000
      1.95000000	      6.15446181	     -0.58773708	     -1.64045329	      0.69001717	      0.98439139	     -0.24985976	    -16.64236107	      1.79991161	     -4.38276816	    -33.53587555	     -6.87444935	      0.34259262	      0.00000000	     15.00319147	      1.70225312	      5.22083099	    -15.15140085	     -6.02762248	     -8.26204579	      0.00000000	    -18.55939494	     -1.08786816	      7.62255414	     -7.23425615	    -11.83416551	     15.93083933	     79.34507399	     43.97648864	      0.00000000	      0.00000000	     -6.64402181	     -8.37823791	     21.56439480	     32.35721129	     43.97648864	      0.00000000	      0.00000000
      1.96000000	      6.41181897	     -0.44689631	     -1.34650143	      0.70462105	      0.98536157	     -0.25089165	    -15.44600098	      1.29065934	     -5.92476979	    -36.75657442	    -10.61220849	     -0.77654912	      0.00000000	     14.90567831	      2.03005256	      5.13833334	    -17.12679948	     -5.10727895	     -8.87695535	      0.00000000	    -18.90329610	     -1.33073903	      7.12092348	     -7.37228458	    -11.61989384	     15.83654156	     78.90050579	     43.99002245	      0.00000000	      0.00000000	     -6.04261191	     -8.23859313	     21.53818828	     32.60373377	     43.99002245	      0.00000000	      0.00000000
      1.97000000	      6.57925027	     -0.15180334	     -1.11352698	      0.71884077	      0.98604367	     -0.25171811	    -14.21967949	      0.56569150	     -7.24291138	    -39.89179980	    -12.09424425	     -1.52006813	      0.00000000	     14.64778718	      2.55619226	      5.23942848	    -18.55123663	     -4.19488623	     -9.24617265	      0.00000000	    -19.18842088	     -1.74985925	      6.63410221	     -7.50134375	    -11.38948019	     15.78410475	     78.47865978	     44.00104095	      0.00000000	      0.00000000	     -5.35164301	     -8.14671329	     21.53054081	     32.94192639	     44.00104095	      0.00000000	      0.00000000
      1.98000000	      6.64922201	      0.29800515	     -0.93554007	      0.73275662	      0.98649553	     -0.25239202	    -12.81238375	     -0.38324771	     -8.48937245	    -43.16549993	    -11.81815398	     -2.31234866	      0.00000000	     14.10717852	      3.30004988	      6.01191093	    -19.32979680	     -3.31965435	     -9.58065547	      0.00000000	    -19.41565394	     -2.33829930	      6.14518402	     -7.65419821	    -11.12503186	     15.75858854	     78.03807765	     44.01045760	      0.00000000	      0.00000000	     -4.55082304	     -8.12508353	     21.53357070	     33.35173671	     44.01045760	      0.00000000	      0.00000000
      1.99000000	      6.84790815	      0.66735557	     -0.80467427	      0.74664307	      0.98696690	     -0.25281169	    -11.31552256	     -1.19116870	     -9.22280896	    -46.57526110	    -11.21918651	     -3.31098061	      0.00000000	     13.50456120	      3.84621358	      6.36589952	    -20.35099100	     -1.97499309	     -9.70903958	      0.00000000	    -19.79146309	     -2.86395643	      5.70992970	     -7.73971273	    -10.91281524	     15.76403394	     77.73041211	     44.01566788	      0.00000000	      0.00000000	     -3.69852391	     -8.06924919	     21.55802383	     33.76174591	     44.01566788	      0.00000000	      0.00000000
      2.00000000	      6.65492160	      1.14463583	     -0.71793812	      0.76006160	      0.98683485	     -0.25298219	     -9.16786131	     -2.08482597	     -9.76196399	    -50.10199596	    -10.41901610	     -4.93503497	      0.00000000	     13.38884385	      4.24798331	      5.42209718	    -21.34600577	     -0.53586167	     -8.61866714	      0.00000000	    -19.77934251	     -3.53298237	      5.22807953	     -7.61695182	    -10.32566439	     15.54888182	     76.18796019	     44.05478851	      0.00000000	      0.00000000	     -3.15369698	     -8.39785071	     21.92605461	     35.22865856	     44.05478851	      0.00000000	      0.00000000
      2.01000000	      6.73589702	      1.49118241	     -0.71030029	      0.77333511	      0.98717832	     -0.25289085	     -7.34447454	     -2.60993991	     -9.79684426	    -53.22794195	     -9.45482762	     -6.72904192	      0.00000000	     12.77854869	      4.60335420	      5.24713577	    -22.00233224	      0.80281766	     -8.02399807	      0.00000000	    -20.09691683	     -4.06293098	      4.87303161	     -7.58066634	    -10.02242581	     15.63228683	     75.41575054	     44.09112888	      0.00000000	      0.00000000	     -2.35023244	     -8.58460558	     22.13975275	     36.36713490	     44.09112888	      0.00000000	      0.00000000
      2.02000000	      7.03587597	      1.70275207	     -0.77854279	      0.78657721	      0.98797324	     -0.25282607	     -5.82367404	     -3.06454414	     -9.87258597	    -55.93583816	     -8.31094472	     -8.16607002	      0.00000000	     11.72942605	      4.88734048	      5.40262402	    -22.30552197	      2.04028151	     -8.05969104	      0.00000000	    -20.65857864	     -4.42720065	      4.60431685	     -7.59623939	     -9.87991557	     15.69220525	     75.24328200	     44.09488812	      0.00000000	      0.00000000	     -1.32436380	     -8.48710339	     22.13533969	     36.76782720	     44.09488812	      0.00000000	      0.00000000
